<?xml version="1.0" encoding="utf-8"?>
<!-- Generator: Adobe Illustrator 22.1.0, SVG Export Plug-In . SVG Version: 6.00 Build 0)  -->
<svg version="1.1" id="Layer_1" xmlns="http://www.w3.org/2000/svg" xmlns:xlink="http://www.w3.org/1999/xlink" x="0px" y="0px"
	 viewBox="0 0 617.4 195" style="enable-background:new 0 0 617.4 195;" xml:space="preserve">
<style type="text/css">
	.st0{fill:#414042;}
</style>
<g>
	<path class="st0" d="M546.9,189c0-0.8-0.1-1.5-0.4-2.1c-0.3-0.7-0.7-1.3-1.2-1.7c-0.5-0.5-1.1-0.9-1.8-1.2
		c-0.7-0.3-1.4-0.4-2.1-0.4c-0.8,0-1.5,0.1-2.1,0.4c-0.7,0.3-1.2,0.7-1.7,1.2c-0.5,0.5-0.9,1.1-1.2,1.7c-0.3,0.7-0.4,1.4-0.4,2.1
		c0,0.8,0.1,1.5,0.4,2.1c0.3,0.7,0.7,1.3,1.2,1.8c0.5,0.5,1.1,0.9,1.7,1.2c0.7,0.3,1.4,0.4,2.1,0.4c0.8,0,1.5-0.1,2.1-0.4
		c0.7-0.3,1.3-0.7,1.8-1.2c0.5-0.5,0.9-1.1,1.2-1.8S546.9,189.7,546.9,189 M545.8,189c0,1.2-0.4,2.3-1.3,3.1s-1.9,1.3-3.1,1.3
		c-1.2,0-2.2-0.4-3.1-1.3c-0.9-0.9-1.3-1.9-1.3-3.1c0-1.2,0.4-2.2,1.3-3.1c0.9-0.9,1.9-1.3,3.1-1.3c1.2,0,2.3,0.4,3.1,1.3
		C545.3,186.7,545.8,187.8,545.8,189 M524.6,191.1h-1.2c-0.4,0.7-0.9,1.2-1.5,1.7s-1.4,0.6-2.2,0.6c-1.2,0-2.2-0.4-3-1.3
		c-0.8-0.8-1.2-1.9-1.2-3.1c0-1.2,0.4-2.2,1.2-3.1c0.4-0.4,0.8-0.7,1.3-1c0.5-0.2,1-0.4,1.5-0.4c0.5,0,0.9,0.1,1.3,0.2
		c1.1,0.3,2,1,2.6,2.1h1.2c-0.4-1-1.1-1.8-2-2.5c-0.9-0.6-1.9-0.9-3-0.9c-1.5,0-2.7,0.5-3.8,1.6c-0.5,0.5-0.9,1.1-1.1,1.8
		s-0.4,1.4-0.4,2.1c0,1.5,0.5,2.8,1.5,3.9c1,1.1,2.3,1.6,3.8,1.6c1.1,0,2.1-0.3,3-1C523.6,192.9,524.2,192.1,524.6,191.1
		 M503.1,191.1h-1.2c-0.4,0.7-0.9,1.2-1.5,1.7c-0.7,0.4-1.4,0.6-2.2,0.6c-1.2,0-2.2-0.4-3-1.3c-0.8-0.8-1.2-1.9-1.2-3.1
		c0-1.2,0.4-2.2,1.2-3.1c0.4-0.4,0.8-0.7,1.3-1c0.5-0.2,1-0.4,1.5-0.4s0.9,0.1,1.3,0.2c1.1,0.3,2,1,2.6,2.1h1.2
		c-0.4-1-1.1-1.8-1.9-2.5c-0.9-0.6-1.9-0.9-3-0.9c-1.5,0-2.7,0.5-3.8,1.6c-0.5,0.5-0.9,1.1-1.1,1.8c-0.3,0.7-0.4,1.4-0.4,2.1
		c0,1.5,0.5,2.8,1.5,3.9c1,1.1,2.3,1.6,3.8,1.6c1.1,0,2.1-0.3,3-1C502,192.9,502.7,192.1,503.1,191.1 M481.3,189
		c0-0.8-0.1-1.5-0.4-2.1c-0.3-0.7-0.7-1.3-1.2-1.7c-0.5-0.5-1.1-0.9-1.8-1.2c-0.7-0.3-1.4-0.4-2.1-0.4c-0.8,0-1.5,0.1-2.1,0.4
		c-0.7,0.3-1.2,0.7-1.7,1.2c-0.5,0.5-0.9,1.1-1.2,1.7c-0.3,0.7-0.4,1.4-0.4,2.1c0,0.8,0.1,1.5,0.4,2.1c0.3,0.7,0.7,1.3,1.2,1.8
		c0.5,0.5,1.1,0.9,1.7,1.2c0.7,0.3,1.4,0.4,2.1,0.4c0.8,0,1.5-0.1,2.1-0.4c0.7-0.3,1.3-0.7,1.8-1.2c0.5-0.5,0.9-1.1,1.2-1.8
		C481.2,190.4,481.3,189.7,481.3,189 M480.2,189c0,1.2-0.4,2.3-1.3,3.1s-1.9,1.3-3.1,1.3c-1.2,0-2.2-0.4-3.1-1.3
		c-0.9-0.9-1.3-1.9-1.3-3.1c0-1.2,0.4-2.2,1.3-3.1c0.9-0.9,1.9-1.3,3.1-1.3c1.2,0,2.3,0.4,3.1,1.3
		C479.8,186.7,480.2,187.8,480.2,189 M459,186.9c0-0.9-0.3-1.7-1-2.3c-0.6-0.6-1.4-0.9-2.4-0.9h-3.4v10.7h1.1v-4.2h1.3l3.1,4.2h1.5
		l-3.3-4.2c0.8-0.1,1.5-0.4,2.1-0.9C458.6,188.6,459,187.8,459,186.9 M453.2,189.1v-4.4h2.5c0.6,0,1.2,0.2,1.6,0.6
		c0.4,0.4,0.6,0.9,0.6,1.5s-0.2,1.2-0.6,1.6c-0.4,0.4-0.9,0.6-1.5,0.6H453.2z M440.2,189c0-0.8-0.1-1.5-0.4-2.1
		c-0.3-0.7-0.7-1.3-1.2-1.7c-0.5-0.5-1.1-0.9-1.8-1.2c-0.7-0.3-1.4-0.4-2.1-0.4c-0.8,0-1.5,0.1-2.1,0.4c-0.7,0.3-1.2,0.7-1.7,1.2
		c-0.5,0.5-0.9,1.1-1.2,1.7c-0.3,0.7-0.4,1.4-0.4,2.1c0,0.8,0.1,1.5,0.4,2.1s0.7,1.3,1.2,1.8c0.5,0.5,1.1,0.9,1.7,1.2
		c0.7,0.3,1.4,0.4,2.1,0.4c0.8,0,1.5-0.1,2.1-0.4c0.7-0.3,1.3-0.7,1.8-1.2c0.5-0.5,0.9-1.1,1.2-1.8C440,190.4,440.2,189.7,440.2,189
		 M439.1,189c0,1.2-0.4,2.3-1.3,3.1c-0.9,0.9-1.9,1.3-3.1,1.3c-1.2,0-2.2-0.4-3.1-1.3s-1.3-1.9-1.3-3.1c0-1.2,0.4-2.2,1.3-3.1
		c0.9-0.9,1.9-1.3,3.1-1.3c1.2,0,2.3,0.4,3.1,1.3C438.7,186.7,439.1,187.8,439.1,189 M417.1,194.3h1.1l-2.5-11.4l-3.5,9.2l-3.5-9.2
		l-2.5,11.4h1.1l1.7-7.6l3.2,8.2l3.2-8.2L417.1,194.3z M376.8,189.3c1.4,0.3,2.3,0.7,2.8,1.1c0.3,0.3,0.5,0.6,0.5,1.1
		s-0.1,0.8-0.3,1.1c-0.5,0.7-1.3,1-2.5,1c-1.7,0-2.6-0.6-2.8-1.7h-1.3c0.4,1.8,1.8,2.7,4.1,2.7c1,0,1.9-0.2,2.6-0.7
		c0.9-0.6,1.3-1.4,1.3-2.4c0-0.9-0.3-1.6-1-2c-0.5-0.3-1.3-0.7-2.4-0.9c-1.1-0.3-1.8-0.5-2.1-0.7c-0.7-0.4-1.1-0.9-1.1-1.5
		c0-0.4,0.1-0.6,0.2-0.9c0.4-0.6,1.1-0.9,2.2-0.9c1.5,0,2.3,0.5,2.5,1.4h1.2c-0.4-1.6-1.6-2.3-3.7-2.3c-0.9,0-1.8,0.2-2.5,0.7
		c-0.7,0.5-1.1,1.2-1.1,2.3C373.6,187.9,374.6,188.8,376.8,189.3 M356,184.6h2.6v9.7h1.1v-9.7h2.6v-1h-2.6h-1.1H356V184.6z
		 M344.4,194.3v-1h-5.3v-3.8h5.1v-1h-5.1v-3.8h5.3v-1h-6.4v10.7H344.4z M325.7,194.3v-1h-5.3v-3.8h5.1v-1h-5.1v-3.8h5.3v-1h-6.4
		v10.7H325.7z M306.8,194.3h1.1l-2.5-11.4l-3.5,9.2l-3.5-9.2l-2.5,11.4h1.1l1.7-7.6l3.2,8.2l3.2-8.2L306.8,194.3z M267.1,189.3
		l4-5.7h-1.4l-3.2,4.6l-3.2-4.6H262l4.1,5.7v5h1.1V189.3z M251.2,186.9c0-0.9-0.3-1.7-1-2.3c-0.6-0.6-1.4-0.9-2.4-0.9h-3.4v10.7h1.1
		v-4.2h1.3l3.1,4.2h1.5l-3.3-4.2c0.8-0.1,1.5-0.4,2.1-0.9C250.9,188.6,251.2,187.8,251.2,186.9 M245.5,189.1v-4.4h2.5
		c0.6,0,1.2,0.2,1.6,0.6c0.4,0.4,0.6,0.9,0.6,1.5s-0.2,1.2-0.6,1.6c-0.4,0.4-0.9,0.6-1.5,0.6H245.5z M232.2,190.8v-7.2h-1.1v7.3
		c0,0.4-0.1,0.8-0.2,1.1c-0.5,0.9-1.3,1.3-2.6,1.3c-0.8,0-1.5-0.2-2-0.6c-0.6-0.4-0.9-1.1-0.9-1.9v-7.3h-1.1v7.2
		c0,1.2,0.4,2.1,1.1,2.7c0.7,0.6,1.7,0.9,2.9,0.9c1.2,0,2.1-0.3,2.8-0.9C231.8,192.9,232.2,192,232.2,190.8 M206.6,184.6h2.6v9.7
		h1.1v-9.7h2.6v-1h-2.6h-1.1h-2.6V184.6z M189,186.5l6,8.5v-11.4h-1.1v7.9l-6-8.5v11.4h1.1V186.5z M175.5,194.3v-1h-5.3v-3.8h5.1v-1
		h-5.1v-3.8h5.3v-1h-6.4v10.7H175.5z M157.4,191.1h-1.2c-0.4,0.7-0.9,1.2-1.5,1.7c-0.7,0.4-1.4,0.6-2.2,0.6c-1.2,0-2.2-0.4-3-1.3
		c-0.8-0.8-1.2-1.9-1.2-3.1c0-1.2,0.4-2.2,1.2-3.1c0.4-0.4,0.8-0.7,1.3-1c0.5-0.2,1-0.4,1.5-0.4c0.5,0,0.9,0.1,1.3,0.2
		c1.1,0.3,2,1,2.6,2.1h1.2c-0.4-1-1.1-1.8-2-2.5c-0.9-0.6-1.9-0.9-3-0.9c-1.5,0-2.7,0.5-3.8,1.6c-0.5,0.5-0.9,1.1-1.1,1.8
		c-0.3,0.7-0.4,1.4-0.4,2.1c0,1.5,0.5,2.8,1.5,3.9c1,1.1,2.3,1.6,3.8,1.6c1.1,0,2.1-0.3,3-1C156.4,192.9,157,192.1,157.4,191.1
		 M120.3,189c0,1.2-0.4,2.2-1.3,3.1c-0.8,0.8-1.9,1.2-3.1,1.2h-1.7v-8.5h1.7c1.2,0,2.3,0.4,3.1,1.2
		C119.8,186.8,120.3,187.8,120.3,189 M121.3,189c0-0.8-0.1-1.5-0.4-2.1c-0.3-0.7-0.7-1.2-1.2-1.7c-0.5-0.5-1.1-0.8-1.7-1.1
		c-0.7-0.3-1.4-0.4-2.2-0.4H113v10.7h2.8c0.8,0,1.5-0.1,2.2-0.4c0.7-0.3,1.3-0.6,1.7-1.1c0.5-0.5,0.9-1,1.2-1.7
		C121.2,190.5,121.3,189.8,121.3,189 M100.6,183.6h-1.1v10.7h1.1V183.6z M87,194.3h1.1l-2.5-11.4l-3.5,9.2l-3.5-9.2l-2.5,11.4h1.1
		l1.7-7.6l3.2,8.2l3.2-8.2L87,194.3z"/>
	<path class="st0" d="M289.6,115c-0.6-0.7-1.3-1.1-2.2-1.1c-0.9-0.1-1.7,0.2-2.6,0.7c-0.8,0.5-1.4,1.4-1.6,2.7
		c-0.3,1.5-0.9,3.8-1.9,6.8c-1,3-2.2,5.9-3.4,8.9c-1.3,2.9-2.5,5.5-3.7,7.7c-1.2,2.2-2.2,3.3-3,3.3c-1.1,0-1.8-1-2.1-3
		c-0.3-2-0.3-4.5,0-7.3c0.3-2.9,0.7-5.9,1.2-9.1c0.6-3.2,1.1-5.9,1.6-8.2c0.5-2.3,0.3-3.7-0.8-4.4c-1-0.6-2.3-0.9-3.8-0.9
		c-1.5,0.1-3.1,0.2-4.9,0.5c-1.7,0.3-3,0.2-3.7-0.2c1-2.4,1.4-4.6,1.1-6.6c-0.3-2-1.7-3-4.4-3c-1.5,0-2.9,0.5-4.1,1.4
		c-1.2,1-2.1,2.1-2.8,3.4c-0.6,1.3-0.9,2.8-0.8,4.3c0.1,1.5,0.8,2.9,1.9,4l-1.1,3.2c-0.1,0.3-0.2,0.6-0.3,0.9
		c-0.3,0.7-0.6,1.5-1,2.4c-0.9,2-2,4.1-3.2,6.5c-1.3,2.4-2.7,4.8-4.4,7.3c-1.7,2.5-3.4,4.8-5.1,6.7c-1.8,1.9-3.6,3.4-5.5,4.5
		c-1.9,1.1-3.7,1.4-5.3,0.9c-1.3-0.4-2.3-1.3-3-2.7c-0.7-1.4-1.2-3.1-1.5-5.1c-0.3-2-0.4-4.3-0.4-6.9c0.1-2.5,0.3-5.1,0.7-7.8
		c1.4-0.1,3-0.3,4.9-0.6c1.8-0.3,3.6-0.7,5.4-1.2c1.8-0.6,3.4-1.3,5-2.2c1.5-0.9,2.8-2,3.8-3.4c1.3-1.7,1.8-3.9,1.6-6.9
		c-0.2-2.9-0.9-5.8-2.2-8.6c-1.3-2.8-3.1-5.2-5.4-7.3c-2.4-2.1-5-3.1-8.1-3.1c-3.2,0-6.1,1.6-8.7,4.8c-2.6,3.2-4.8,7.2-6.5,12
		c-1.1,3-1.9,6.2-2.6,9.5c-0.6,1.3-1.3,2.9-2.1,4.8c-1,2.4-2.1,4.8-3.2,7.1c-1.1,2.4-2.3,4.5-3.4,6.4c-1.1,1.9-2.3,3.2-3.4,4
		c-1,0.6-1.9,0.5-2.6-0.5c-0.7-1-1.2-2.3-1.4-4.2c-0.3-1.8-0.3-4-0.2-6.4c0.1-2.4,0.6-4.8,1.3-7c0.9-2.9,0.7-4.8-0.5-5.7
		c-1.2-0.9-2.8-1.2-4.8-1c-2,0.2-4,0.6-6.1,1.3c-2.1,0.7-3.6,1.2-4.5,1.4c0.8-1.1,2.2-2.5,4.4-4c2.2-1.5,4.4-3.2,6.9-5
		c2.4-1.8,4.7-3.6,7-5.5c2.2-1.9,3.8-3.8,4.7-5.7c0.8-1.7,0.4-2.9-1.1-3.8c-1.5-0.9-3.3-1.3-5.4-1.3c-2.1,0-4.1,0.4-6.1,1.1
		c-2,0.8-3,1.8-3.1,3.2c-0.5,3-2,6.1-4.5,9.2c-2.5,3.1-5.2,6.4-8.1,10c0.1-5.8,0.3-11.7,0.6-17.4c0.3-5.8,0.5-11.1,0.8-15.9
		c0.3-4.8,0.5-8.9,0.8-12.2c0.3-3.3,0.4-5.4,0.6-6.3c0.3-1.4-0.4-2.3-1.9-2.9c-1.5-0.5-3.2-0.5-5.1,0c-1.9,0.5-3.7,1.5-5.2,3
		c-1.6,1.5-2.3,3.4-2.2,5.8v7.5c0,3.6,0,7.9-0.1,12.8c-0.1,4.9-0.2,10.2-0.3,15.8c-0.1,3.8-0.2,7.4-0.3,11.1
		c-0.3,1.5-0.9,3.6-1.8,6.4c-1,3-2.2,5.9-3.4,8.9c-1.3,2.9-2.5,5.5-3.7,7.7c-1.2,2.2-2.2,3.3-3,3.3c-1.1,0-1.8-1-2.1-3
		c-0.3-2-0.3-4.5,0-7.3c0.3-2.9,0.7-5.9,1.2-9.1c0.6-3.2,1.1-5.9,1.6-8.2c0.5-2.3,0.3-3.7-0.8-4.4c-1-0.6-2.3-0.9-3.8-0.9
		c-1.5,0.1-3.1,0.2-4.9,0.5c-1.7,0.3-3,0.2-3.7-0.2c1-2.4,1.4-4.6,1.1-6.6c-0.3-2-1.7-3-4.4-3c-1.5,0-2.9,0.5-4.1,1.4
		c-1.2,1-2.1,2.1-2.8,3.4c-0.6,1.3-0.9,2.8-0.8,4.3c0.1,1.5,1.1,3.1,2.2,4.2c0,0-2.4,7-2.8,8.2c-0.9,2.7-1.9,5.3-3,8
		c-1.1,2.7-2.2,5-3.2,7c-1.1,2-2,3-2.8,3c-1,0-1.7-1.1-2-3.4c-0.3-2.3-0.4-5-0.3-8.2c0.1-3.2,0.4-6.5,0.9-9.9
		c0.4-3.4,0.9-6.3,1.4-8.6c0.3-1.6-0.1-3.1-1-4.3c-0.9-1.2-2-2.1-3.4-2.7c-1.4-0.6-2.9-0.8-4.4-0.7c-1.5,0.1-2.8,0.8-3.8,1.9
		c-0.9-1.5-2-2.9-3.3-4.2c-1.3-1.3-2.9-2.1-4.7-2.5c-4.7-0.9-8.7-0.2-12,2.2c-3.3,2.4-5.9,5.6-7.9,9.6c-2,4.1-3.3,8.6-3.9,13.7
		c-0.6,5.1-0.6,10,0.2,14.7c0.8,4.7,2.2,8.8,4.4,12.4c2.2,3.6,5.1,5.8,8.8,6.9c2,0.5,4.4,0.3,7-0.6c2.8-1.1,5.1-3,6.9-5.4
		c1.8-2.5,3.2-5.2,4.2-8.3c1.6,3.4,4.3,5.7,8,6.7c2.3,0.6,4.4,0.4,6.4-0.8c2-1.1,3.7-2.8,5.3-4.9c1.6-2.1,3-4.5,4.2-7.2
		c1.2-2.7,2.3-5.4,3.1-7.9c0.9-2.5,1.6-4.9,2.2-7c0.6-2.1,1.3-4.8,1.4-5.2h1.5c0.6,0,1.3-0.1,1.9-0.2c-1,3-1.8,6.6-2.4,10.7
		c-0.6,4.1-0.7,7.9-0.3,11.5c0.4,3.6,1.3,6.7,2.7,9.3c1.4,2.6,3.6,4,6.7,4.1c2.7,0.1,5.1-0.5,7.2-2c2.2-1.5,4.1-3.4,5.9-5.8
		c1.1-1.5,2.1-3.2,3.1-4.9c-0.2,4-0.3,7.4-0.4,10.2c0,1.9,0.7,3.3,2,4.3c1.3,1,2.9,1.5,4.6,1.5c1.7,0.1,3.2-0.3,4.6-1.1
		c1.3-0.8,2-2.1,2-3.9c-0.1-2.8-0.2-6.3-0.1-10.5c0.1-4.2,0.2-8.7,0.3-13.5c0.5-0.8,1.2-1.5,2.2-2.2c1-0.7,1.9-1.2,2.9-1.6
		c1-0.4,1.7-0.6,2.4-0.6c0.6,0,1,0.3,1,1c-0.3,1.4-0.5,3.6-0.7,6.7c-0.2,3,0,6.1,0.6,9.1c0.6,3,1.7,5.7,3.4,7.8
		c1.7,2.2,4.5,3.1,8.3,2.9c3.2-0.3,6-1.7,8.6-4.4c2.5-2.7,4.7-5.7,6.6-9.2c0.2-0.3,0.3-0.7,0.5-1c0.1,1.2,0.3,2.4,0.5,3.6
		c0.9,4.8,2.6,8.8,5.1,12c2.5,3.2,6.1,4.8,10.7,4.8c3.8,0,7.3-0.8,10.4-2.5c3.1-1.7,5.9-3.7,8.3-6.2c2.4-2.5,4.5-5.2,6.2-8.2
		c1.7-3,3.2-5.9,4.4-8.7c1.2-2.8,2.1-5.3,2.8-7.5c0.6-2.2,1.1-3.7,1.3-4.5c0.1-0.3,0.1-0.5,0.1-0.8c0,0,0-0.1,0.1-0.2h1.9
		c0.6,0,1.3-0.1,1.9-0.2c-1,3-1.8,6.6-2.4,10.7c-0.6,4.1-0.7,7.9-0.3,11.5c0.4,3.6,1.3,6.7,2.7,9.3c1.4,2.6,3.6,4,6.7,4.1
		c2.7,0.1,5.1-0.5,7.2-2c2.2-1.5,4.1-3.4,5.9-5.8c1.8-2.4,3.3-5,4.6-7.9c1.3-2.9,2.3-5.6,3.2-8.2c0.9-2.6,1.6-5,2.1-7
		c0.5-2.1,0.8-3.5,1-4.1C290.4,116.7,290.2,115.7,289.6,115z M224,105.3c1-2.9,2-4.5,2.9-4.9c0.5-0.3,1,0.1,1.4,1.1
		c0.4,1,0.8,2.3,1,3.8c0.2,1.5,0.2,3,0.1,4.5c-0.1,1.5-0.4,2.6-1,3.3c-0.6,1-1.7,1.7-3,2c-1.4,0.3-2.8,0.5-4.2,0.5
		C222,111.6,223,108.1,224,105.3z M97.4,129.1c-0.6,3.9-1.4,7.4-2.5,10.6c-1.1,3.2-2.4,5.8-3.8,7.8c-1.5,2-3,2.9-4.7,2.7
		c-1.7-0.3-2.9-1.5-3.7-3.8c-0.8-2.3-1.3-5-1.5-8.3c-0.2-3.2-0.1-6.7,0.4-10.3c0.4-3.6,1.2-7,2.2-10c1-3,2.3-5.5,3.9-7.3
		c1.6-1.8,3.4-2.6,5.4-2.2c1.4,0.3,2.4,1.4,3.1,3.4c0.7,2,1.2,4.1,1.4,6.3C98.1,121.5,98,125.2,97.4,129.1z"/>
	<path class="st0" d="M488.1,29.3c-1.9-3.5-4.4-6.6-7.7-9.3c-3.2-2.7-6.9-5-11-7.1c-4.1-2-8.3-3.8-12.7-5.2
		c-4.4-1.5-8.6-2.7-12.8-3.6c-4.2-0.9-8-1.7-11.4-2.3c-4-0.6-8.2-1.2-12.6-1.5c-10.9-0.9-26,0.1-32.9,0.8c-9.7,1-18.2,3.1-18.7,3.2
		c-23.4,5.9-28,13.1-27.1,16.4c0,0.1,0.1,0.3,0.2,0.4c0.4,0.9,1.8,1.5,4.1,1.8c1,0.1,2.2,0.1,3.5-0.1c1.3-0.2,3.3-0.5,5.8-1
		c2-0.4,4.6-1,7.7-1.7c0,0,0,0,0,0c15.5-3.3,20.3-3.7,20.3-3.7c0.4-0.1,0.9-0.1,1.3-0.2c0.5-0.1,1-0.1,1.5-0.2
		c-0.4,1-0.8,2.2-1.1,3.5c-0.3,2.1-1.2,30.7-2,59.8c-4.3,0.4-7.9,0.8-9,0.9c-9.9,1.2-19.5,3.6-19,7.4c0.4,2.8,10.2,4.3,27.7,3
		c0,0.9,0,1.9-0.1,2.8c-0.8,12.8-1.4,23.3-1.5,25.3c-0.3,5.3-0.6,10.4-0.9,15.2c-0.3,4.8-0.6,9.2-1,12.9c-0.4,3.8-0.7,6.7-1.1,8.7
		c-0.4,1.8,0.2,2.9,1.8,3.4c1.6,0.5,3.3,0.5,5.3-0.1c2-0.6,3.8-1.7,5.5-3.2c1.7-1.6,2.6-3.6,2.6-6.1c0-1.1,0.1-3.3,0.2-6.5
		c0.1-3.1,0.2-6.7,0.3-10.9c0-0.2,0-0.3,0-0.5c0.1-4.4,0.3-9.1,0.4-14.2c0.1-2.2,0.9-14.3,1.7-28.1c1.7-0.2,3.5-0.5,5.4-0.8
		c3.9-0.4,8.8-1.1,14.8-1.9c6-0.8,12.3-2,18.9-3.4c6.6-1.5,13.2-3.3,19.9-5.6c6.6-2.3,12.6-5.1,17.9-8.3c5.3-3.3,9.7-7.3,13.1-11.9
		c3.4-4.6,5.2-10,5.3-16.2C490.9,36.7,490,32.8,488.1,29.3z M472.5,53.2c-2.9,3.3-6.7,6.2-11.4,8.7c-4.6,2.6-9.8,4.7-15.5,6.5
		c-5.7,1.8-11.3,3.3-16.8,4.5c-5.5,1.2-10.7,2.2-15.6,2.9c-4.8,0.7-8.7,1.3-11.4,1.6c0,0-2.3,0.2-5.6,0.5c0.6-8.8,1.1-17.4,1.5-24
		c0.3-9.3,0.6-15.9,0.6-16.4c0.4-2.9,0.6-5.8,0.6-8.7c0.1-2.9-0.2-5.5-0.8-7.8c-0.3-1.3-1.3-3-2-4.2c-0.6-1-1.1-1.7-1.1-1.7
		c0.2,0,0.3-0.1,0.2-0.1c4.5-0.3,9-0.4,13.5-0.4c3.9,0.1,8.3,0.3,13.3,0.7c5,0.4,10,1.1,15,2c5.1,0.9,10,2.1,14.8,3.5
		c4.8,1.4,9.1,3.1,12.8,5.1c3.7,2,6.7,4.3,9,6.9c2.3,2.6,3.4,5.6,3.3,9C477,46.1,475.4,49.9,472.5,53.2z"/>
	<path class="st0" d="M359.4,114.1c0-6-4.5-11.2-10.5-11.2c-4.4,0-7.3,2.9-7.3,6.5c0,2.7,1.8,4.5,4.5,4.5c3.3,0,4.2-2.3,4-3.5
		c-0.3-1.8,0.9-1.6,1.3-1.6c0.9,0.1,1.6,1.9,1.6,3.6c0,2.9-2.2,4.8-6.8,4.8h-6.9c-8.1,0-13.8,4.9-13.8,11.8c0,5.4,3.6,9.5,8.4,9.5
		c4.3,0,7.9-3,7.9-6.8c0-2.9-2-5.2-4.5-5.2c-2.1,0-3.3,1.2-3.3,3.3c0,1,0.6,1.4,0.7,2.1c0,0.6-0.5,1.2-1.5,1.2c-1.3,0-2.2-2-2.2-3.9
		c0-2.9,2.3-4.7,5.9-4.7c4.5,0,8,3.7,8,8.6c0,7.4-7.7,13.6-16.9,13.6c-10,0-19.2-7.9-19.2-16.3c0-3.8,1.8-6.7,4.1-6.7
		c1,0,1.6,0.5,2.6,1.5c1,1,2.3,2.3,4.7,2.3c2.6,0,4-1.6,4.3-4.2c0.3-2.8-1.3-3.4-5.5-4.8c-1.2-0.4-2-2.4-2-3.5
		c0-3.5,2.3-5.8,5.7-5.9c5.4-0.2,7.2,4.7,8.8,4.7c2.1,0.1,2.8-2.2,2.7-4.9c-0.2-3.6-4.7-8.1-10.6-8.1c-7.5,0-12.7,4.9-12.7,12
		c0,1.8,0.3,3.8,0.8,5.4c-6.6,2.2-10.7,8.2-10.7,15.8c0,11.8,11.7,22,25.4,22c14,0,25-9.3,25-21.2c0-3.6-1-6.9-2.6-9
		C355.4,124.7,359.4,120.1,359.4,114.1"/>
	<g>
		<path class="st0" d="M616.9,115.7c-0.6-0.8-1.3-1.2-2.1-1.4c-0.8-0.2-1.7-0.1-2.6,0.4c-0.9,0.4-1.5,1.3-1.9,2.6
			c-0.3,1.4-0.8,3.4-1.7,6.1c-0.9,2.7-1.9,5.3-3,8c-1.1,2.7-2.2,5-3.2,7c-1.1,2-2,3-2.8,3c-1,0-1.7-1.1-2-3.4
			c-0.3-2.3-0.4-5-0.3-8.2c0.1-3.2,0.4-6.5,0.9-9.9c0.4-3.4,0.9-6.3,1.4-8.6c0.3-1.6-0.1-3.1-1-4.3c-0.9-1.2-2-2.1-3.4-2.7
			c-1.4-0.6-2.9-0.8-4.4-0.7c-1.5,0.1-2.8,0.8-3.8,1.9c-0.9-1.5-2-2.9-3.3-4.2c-1.3-1.3-2.9-2.1-4.7-2.5c-4.7-0.9-8.7-0.2-12,2.2
			c-3.3,2.4-5.9,5.6-7.9,9.6c-0.9,1.8-1.6,3.7-2.2,5.7c-0.1,0.3-0.3,0.6-0.4,0.9c-0.3,1.4-0.8,3.4-1.7,6.1c-0.9,2.7-1.8,5.3-2.9,8
			c-1,2.7-2.1,5-3.1,7c-1.1,2-2,3-2.8,3c-1.1,0-1.9-1.1-2.2-3.4c-0.3-2.3-0.4-5-0.3-8.2c0.1-3.2,0.4-6.5,0.9-9.9
			c0.4-3.4,0.9-6.3,1.4-8.6c0.4-2-0.1-3.7-1.5-5.1c-1.4-1.4-3-2.2-5-2.5c-1.9-0.3-3.7,0.2-5.2,1.3c-1.6,1.1-2.4,3.2-2.4,6.3
			c0,4.1-0.2,8.2-0.5,12.5c-0.3,4.3-0.3,8.2-0.1,11.8c0.3,3.6,1.1,6.8,2.6,9.5c1.5,2.7,3.9,4.6,7.3,5.6c2.3,0.6,4.4,0.4,6.3-0.8
			c1.9-1.1,3.6-2.8,5.2-4.9c1.1-1.4,2.1-3.1,3-4.8c0.8,4.2,2.2,7.9,4.1,11.2c2.2,3.6,5.1,5.8,8.8,6.9c2,0.5,4.4,0.3,7-0.6
			c2.8-1.1,5.1-3,6.9-5.4c1.8-2.5,3.2-5.2,4.2-8.3c1.6,3.4,4.3,5.7,8,6.7c2.3,0.6,4.4,0.4,6.4-0.8c2-1.1,3.7-2.8,5.3-4.9
			c1.6-2.1,3-4.5,4.2-7.2c1.2-2.7,2.3-5.4,3.1-7.9c0.9-2.5,1.6-4.9,2.2-7c0.6-2.1,1-3.5,1.2-4.3
			C617.6,117.4,617.5,116.4,616.9,115.7z M583.8,129.1c-0.6,3.9-1.4,7.4-2.5,10.6c-1.1,3.2-2.4,5.8-3.8,7.8c-1.5,2-3,2.9-4.7,2.7
			c-1.7-0.3-2.9-1.5-3.7-3.8c-0.8-2.3-1.3-5-1.5-8.3c-0.2-3.2-0.1-6.7,0.4-10.3c0.4-3.6,1.2-7,2.2-10c1-3,2.3-5.5,3.9-7.3
			c1.6-1.8,3.4-2.6,5.4-2.2c1.4,0.3,2.4,1.4,3.1,3.4c0.7,2,1.2,4.1,1.4,6.3C584.4,121.5,584.3,125.2,583.8,129.1z"/>
		<path class="st0" d="M521.6,100.8c-1.7-0.9-3.3-0.9-5,0c-3.4,2-7.3,3.7-11.7,4.9c-4.4,1.2-8.5,1.8-12.3,1.8
			c-1.9,0-3.3,0.6-4.3,1.8c-1,1.2-1.5,2.5-1.5,4c-0.1,1.4,0.2,2.7,0.7,3.9c-0.3,1.5-0.9,3.8-1.9,6.7c-1,3-2.2,5.9-3.4,8.9
			c-1.3,2.9-2.5,5.5-3.7,7.7c-1.2,2.2-2.2,3.3-3,3.3c-1.1,0-1.8-1-2.1-3c-0.3-2-0.3-4.5,0-7.3c0.3-2.9,0.7-5.9,1.2-9.1
			c0.6-3.2,1.1-5.9,1.6-8.2c0.5-2.3,0.3-3.7-0.8-4.4c-1-0.6-2.3-0.9-3.8-0.9c-1.5,0.1-3.1,0.2-4.9,0.5c-1.7,0.3-3,0.2-3.7-0.2
			c1-2.4,1.4-4.6,1.1-6.6c-0.3-2-1.7-3-4.4-3c-1.5,0-2.9,0.5-4.1,1.4c-1.2,1-2.1,2.1-2.8,3.4c-0.6,1.3-0.9,2.8-0.8,4.3
			c0.1,1.5,0.8,2.9,1.9,4c0,0-3.1,6.9-4,8.9c-0.9,2-2,4.1-3.2,6.5c-1.3,2.4-2.7,4.8-4.4,7.3c-1.7,2.5-3.4,4.8-5.1,6.7
			c-1.8,1.9-3.6,3.4-5.5,4.5c-1.9,1.1-3.7,1.4-5.3,0.9c-1.3-0.4-2.3-1.3-3-2.7c-0.7-1.4-1.2-3.1-1.5-5.1c-0.3-2-0.6-8.6-0.3-11.2
			c1.6,0.4,3.6,0.2,5.4-0.1c1.8-0.3,3.6-0.7,5.4-1.2c1.8-0.6,3.4-1.3,5-2.2c1.5-0.9,2.8-2,3.8-3.4c1.3-1.6,1.8-3.9,1.6-6.9
			c-0.2-2.9-0.9-5.8-2.2-8.6c-1.3-2.8-3.1-5.2-5.4-7.3c-2.4-2.1-5-3.1-8.1-3.1c-3.2,0-6.1,1.6-8.7,4.8c-2.6,3.2-4.8,7.2-6.5,12
			c-1.7,4.8-2.6,8-3.2,13.6c-0.6,5.5-0.6,8.7,0.2,13.6c0.9,4.8,2.6,8.8,5.1,12c2.5,3.2,6.1,4.8,10.7,4.8c3.8,0,7.3-0.8,10.4-2.5
			c3.1-1.7,5.9-3.7,8.3-6.2c2.4-2.5,4.5-5.2,6.2-8.2c1.7-3,3.2-5.9,4.4-8.7c1.2-2.8,2.1-5.3,2.8-7.5c0.5-1.7,2.1-7.4,2.5-8.1
			c0,0,1.6,0.3,2.2,0.3c0.6,0,1.5,0,2.1-0.2c-1,3-1.8,6.6-2.4,10.7c-0.6,4.1-0.7,7.9-0.3,11.5c0.4,3.6,1.3,6.7,2.7,9.3
			c1.4,2.6,3.6,4,6.7,4.1c2.7,0.1,5.1-0.5,7.2-2c2.2-1.5,4.1-3.4,5.9-5.8c1.8-2.4,3.3-5,4.6-7.9c1.3-2.9,2.3-5.6,3.2-8.2
			c0.9-2.6,1.6-5,2.1-7c0.1-0.4,0.2-0.7,0.3-1.1c0.1,0,0.2,0.1,0.3,0.1c1.6,0.6,3.3,1.3,5,2.3c1.7,1,3.4,2.1,5.1,3.4
			c1.7,1.3,3.1,2.8,4.3,4.5c1.4,1.9,2.4,3.8,3,5.6c0.6,1.8,0.9,3.5,0.8,5c-0.1,1.5-0.6,2.6-1.4,3.5c-0.8,0.9-1.9,1.3-3.1,1.3
			c-1,0-2-0.9-3-2.7c-1-1.8-1.2-4.6-0.6-8.6c0.3-1.9-0.4-3.2-1.8-4c-1.5-0.8-3.1-1-5-0.6c-1.8,0.4-3.6,1.3-5.1,2.7
			c-1.6,1.4-2.4,3.3-2.4,5.7c0,2.9,0.6,5.4,1.7,7.5c1.1,2.1,2.6,3.7,4.5,5c1.8,1.2,3.9,2,6.3,2.4c2.3,0.4,4.8,0.4,7.3,0
			c4.1-0.9,7.6-2.6,10.7-5.2c3-2.6,4.6-6.1,4.6-10.6c0-4.1-1.1-7.4-3.4-10.1c-2.3-2.7-4.8-4.8-7.6-6.4c-2.8-1.6-5.4-2.7-7.9-3.4
			c-2.5-0.7-3.8-1-4.1-1c0.4,0,1.3-0.2,2.7-0.5c1.4-0.3,3.1-0.7,5-1c2-0.4,4.1-0.8,6.3-1.3c2.2-0.5,4.3-1,6.4-1.5
			c2.3-0.6,3.6-1.8,3.9-3.5c0.3-1.7,0-3.4-0.9-5C524.5,102.9,523.2,101.7,521.6,100.8z M426.4,111.5c1-2.9,2.3-4.4,3.2-4.8
			c0.5-0.3,1,0.1,1.4,1.1c0.4,1,0.8,2.3,1,3.8c0.2,1.5,0.2,3,0.1,4.5c-0.1,1.5-0.4,2.6-1,3.3c-0.6,1-1.7,1.7-3,2
			c-1.4,0.3-3.3,0.5-4.7,0.5C424.2,117.9,425.3,114.4,426.4,111.5z"/>
	</g>
	<g>
		<path class="st0" d="M540.9,99.9c4.5,0.2,8.3-3.5,8.5-8.1c0.2-4.6-3.4-8.5-7.9-8.6c-4.5-0.2-8.3,3.5-8.5,8.1
			C532.8,95.8,536.3,99.7,540.9,99.9"/>
	</g>
	<path class="st0" d="M146.9,29.3c-1.9-3.5-4.4-6.6-7.7-9.3c-3.2-2.7-6.9-5-11-7.1c-4.1-2-8.3-3.8-12.7-5.2
		c-4.4-1.5-8.6-2.7-12.8-3.6c-4.2-0.9-8-1.7-11.4-2.3c-4-0.6-8.2-1.2-12.6-1.5c-10.9-0.9-26,0.1-32.9,0.8c-9.7,1-18.2,3.1-18.7,3.2
		C3.9,10.3-0.8,17.4,0.1,20.7c0,0.1,0.1,0.3,0.2,0.4c0.4,0.9,1.8,1.5,4.1,1.8c1,0.1,2.2,0.1,3.5-0.1c1.3-0.2,3.3-0.5,5.8-1
		c2-0.4,4.6-1,7.7-1.7c0,0,0,0,0,0c15.5-3.3,20.3-3.7,20.3-3.7c0.4-0.1,0.9-0.1,1.3-0.2c0.5-0.1,1-0.1,1.5-0.2
		c-0.4,1-0.8,2.2-1.1,3.5c-0.3,2.1-1.2,30.7-2,59.8c-4.3,0.4-7.9,0.8-9,0.9c-9.9,1.2-19.5,3.6-19,7.4c0.4,2.8,10.2,4.3,27.7,3
		c0,0.9,0,1.9-0.1,2.8c-0.8,12.8-1.4,23.3-1.5,25.3c-0.3,5.3-0.6,10.4-0.9,15.2c-0.3,4.8-0.6,9.2-1,12.9c-0.4,3.8-0.7,6.7-1.1,8.7
		c-0.4,1.8,0.2,2.9,1.8,3.4c1.6,0.5,3.3,0.5,5.3-0.1c2-0.6,3.8-1.7,5.5-3.2c1.7-1.6,2.6-3.6,2.6-6.1c0-1.1,0.1-3.3,0.2-6.5
		c0.1-3.1,0.2-6.7,0.3-10.9c0-0.2,0-0.3,0-0.5c0.1-4.4,0.3-9.1,0.4-14.2c0.1-2.2,0.9-14.3,1.7-28.1c1.7-0.2,3.5-0.5,5.4-0.8
		c3.9-0.4,8.8-1.1,14.8-1.9c6-0.8,12.3-2,18.9-3.4c6.6-1.5,13.2-3.3,19.9-5.6c6.6-2.3,12.6-5.1,17.9-8.3c5.3-3.3,9.7-7.3,13.1-11.9
		c3.4-4.6,5.2-10,5.3-16.2C149.7,36.7,148.8,32.8,146.9,29.3z M131.3,53.2c-2.9,3.3-6.7,6.2-11.4,8.7c-4.6,2.6-9.8,4.7-15.5,6.5
		c-5.7,1.8-11.3,3.3-16.8,4.5c-5.5,1.2-10.7,2.2-15.6,2.9c-4.8,0.7-8.7,1.3-11.4,1.6c0,0-2.3,0.2-5.6,0.5c0.6-8.8,1.1-17.4,1.5-24
		c0.3-9.3,0.6-15.9,0.6-16.4c0.4-2.9,0.6-5.8,0.6-8.7c0.1-2.9-0.2-5.5-0.8-7.8c-0.3-1.3-1.3-3-2-4.2c-0.6-1-1.1-1.7-1.1-1.7
		c0.2,0,0.3-0.1,0.2-0.1c4.5-0.3,9-0.4,13.5-0.4c3.9,0.1,8.3,0.3,13.3,0.7c5,0.4,10,1.1,15,2c5.1,0.9,10,2.1,14.8,3.5
		c4.8,1.4,9.1,3.1,12.8,5.1c3.7,2,6.7,4.3,9,6.9c2.3,2.6,3.4,5.6,3.3,9C135.8,46.1,134.2,49.9,131.3,53.2z"/>
</g>
</svg>
